<svg xmlns="http://www.w3.org/2000/svg" viewBox="0 0 64 64" fill="none">
  <defs>
    <linearGradient id="g1" x1="10" y1="10" x2="54" y2="54" gradientUnits="userSpaceOnUse">
      <stop stop-color="#A5F5FF"/>
      <stop offset="1" stop-color="#33BBCF"/>
    </linearGradient>
  </defs>
  <rect x="6" y="6" width="52" height="52" rx="18" fill="#0B1220" stroke="url(#g1)" stroke-width="2"/>
  <rect x="20" y="19" width="24" height="20" rx="8" stroke="url(#g1)" stroke-width="2.5"/>
  <circle cx="28" cy="29" r="2.2" fill="url(#g1)"/>
  <circle cx="36" cy="29" r="2.2" fill="url(#g1)"/>
  <path d="M27 35C28.6 33.8 30.2 33.2 32 33.2C33.8 33.2 35.4 33.8 37 35" stroke="url(#g1)" stroke-width="2.2" stroke-linecap="round"/>
  <path d="M26 19V15M38 19V15" stroke="url(#g1)" stroke-width="2.5" stroke-linecap="round"/>
  <circle cx="26" cy="14" r="1.8" fill="url(#g1)"/>
  <circle cx="38" cy="14" r="1.8" fill="url(#g1)"/>
  <path d="M32 39V46" stroke="url(#g1)" stroke-width="2.5" stroke-linecap="round"/>
  <path d="M24 48H40" stroke="url(#g1)" stroke-width="2.5" stroke-linecap="round"/>
  <path d="M20 24L15 24M49 24L44 24" stroke="url(#g1)" stroke-width="2.2" stroke-linecap="round" opacity="0.9"/>
  <path d="M20 34L15 34M49 34L44 34" stroke="url(#g1)" stroke-width="2.2" stroke-linecap="round" opacity="0.6"/>
</svg>
