<svg xmlns="http://www.w3.org/2000/svg" viewBox="0 0 64 64" fill="none">
  <defs>
    <linearGradient id="g6" x1="10" y1="10" x2="54" y2="54" gradientUnits="userSpaceOnUse">
      <stop stop-color="#A5F5FF"/>
      <stop offset="1" stop-color="#33BBCF"/>
    </linearGradient>
  </defs>
  <rect x="6" y="6" width="52" height="52" rx="18" fill="#0B1220" stroke="url(#g6)" stroke-width="2"/>
  <circle cx="20" cy="24" r="4.5" stroke="url(#g6)" stroke-width="2.5"/>
  <circle cx="32" cy="19" r="5" stroke="url(#g6)" stroke-width="2.5"/>
  <circle cx="44" cy="24" r="4.5" stroke="url(#g6)" stroke-width="2.5"/>
  <path d="M13 42C13 36.8 16.2 33.5 20 33.5C23.8 33.5 27 36.8 27 42" stroke="url(#g6)" stroke-width="2.5" stroke-linecap="round"/>
  <path d="M23 45C23 38.8 27 34.8 32 34.8C37 34.8 41 38.8 41 45" stroke="url(#g6)" stroke-width="2.5" stroke-linecap="round"/>
  <path d="M37 42C37 36.8 40.2 33.5 44 33.5C47.8 33.5 51 36.8 51 42" stroke="url(#g6)" stroke-width="2.5" stroke-linecap="round"/>
</svg>
